<svg width="376" height="375" viewBox="0 0 376 375" fill="none" xmlns="http://www.w3.org/2000/svg">
    <defs>
        <linearGradient id="customGradient" x1="0.5" y1="0" x2="0.5" y2="1" gradientUnits="objectBoundingBox">
            <stop offset="0%" stop-color="#33E4DB" />
            <stop offset="100%" stop-color="#00BAD3" />
        </linearGradient>
    </defs>
    <path d="M150.187 25C150.187 13.9543 159.141 5 170.187 5H205.187C216.232 5 225.187 13.9543 225.187 25V52.6424C225.187 59.9445 230.105 66.2831 236.878 69.0122V69.0122C243.487 71.6751 251.12 70.5865 256.187 65.5773L276.075 45.9166C283.899 38.1826 296.499 38.2188 304.278 45.9976L329.189 70.9084C336.968 78.6872 337.004 91.2879 329.27 99.1112L309.609 118.999C304.6 124.066 303.511 131.699 306.174 138.308V138.308C308.903 145.081 315.242 150 322.544 150L350.187 150C361.232 150 370.187 158.954 370.187 170V205C370.187 216.046 361.232 225 350.187 225L319.453 225C312.996 225 307.329 229.194 304.738 235.108V235.108C302.097 241.138 302.982 248.229 307.549 252.97L329.631 275.893C337.194 283.743 337.077 296.203 329.37 303.911L304.477 328.804C296.62 336.66 283.867 336.607 276.076 328.686L252.568 304.786C248.161 300.305 241.447 299.214 235.592 301.498V301.498C229.547 303.856 225.187 309.496 225.187 315.984V350C225.187 361.046 216.232 370 205.187 370H170.187C159.141 370 150.187 361.046 150.187 350V312.912C150.187 307.265 146.526 302.3 141.329 300.091V300.091C136.071 297.856 129.934 298.744 125.873 302.763L99.2978 329.066C91.4758 336.808 78.8685 336.776 71.0864 328.994L46.1927 304.1C38.4106 296.318 38.3782 283.711 46.1202 275.889L72.4236 249.314C76.443 245.253 77.3303 239.116 75.0953 233.858V233.858C72.8862 228.66 67.9214 225 62.2742 225L25.1865 225C14.1408 225 5.18652 216.046 5.18652 205V170C5.18652 158.954 14.1408 150 25.1865 150L59.4188 150C65.7789 150 71.3089 145.727 73.6096 139.798V139.798C75.814 134.117 74.7693 127.616 70.4601 123.307L46.2652 99.1116C38.4547 91.3012 38.4547 78.6378 46.2652 70.8274L71.014 46.0786C78.8244 38.2681 91.4877 38.2681 99.2982 46.0786L120.743 67.5231C125.699 72.4797 133.271 73.4578 139.682 70.6229V70.6229C145.821 67.908 150.187 62.0174 150.187 55.3044V25Z" stroke="url(#customGradient)" stroke-width="10"/>
    <path d="M239.487 176.473C245.274 205.396 226.57 232.881 197.708 237.862C168.847 242.843 140.758 223.434 134.97 194.511C129.182 165.587 147.887 138.103 176.748 133.122C205.61 128.141 233.699 147.55 239.487 176.473Z" stroke="url(#customGradient)" stroke-width="10"/>
</svg>

