<svg width="316" height="383" viewBox="0 0 316 383" fill="none" xmlns="http://www.w3.org/2000/svg">
    <path d="M257.561 228.942C288.165 228.942 310.187 264.405 310.187 307.777V377.565M5.18652 377.565V307.777C5.18652 264.405 30.2069 228.942 60.7586 228.942H64.3769M226.027 137.028C223.207 153.109 214.81 167.681 202.311 178.185C189.813 188.689 174.013 194.452 157.687 194.461C141.364 194.46 125.565 188.699 113.073 178.192C100.581 167.686 92.1973 153.109 89.3977 137.028M234.143 105.65V81.4046C234.143 61.1407 226.094 41.7067 211.766 27.378C197.437 13.0493 178.002 5 157.738 5C137.47 5 118.03 13.0476 103.693 27.3748C89.3564 41.7021 81.295 61.136 81.2813 81.4046V95.7759C136.853 72.6166 139.645 46.821 139.645 46.821C139.645 46.821 148.847 78.6131 189.169 74.3742C189.169 74.3742 189.169 108.338 234.092 105.391M81.2813 89.8826C72.3898 89.8826 70.6318 100.222 70.6318 113.197C70.6318 126.173 73.4751 136.873 82.3149 136.873H87.4844M234.092 89.8826C242.932 89.8826 243.862 100.222 243.862 113.352C243.862 126.483 241.07 137.028 232.23 137.028H227.061M224.218 215.346C256.631 215.346 266.091 235.094 266.091 261.872V322.148M91.1558 215.657C64.016 218.19 55.8478 237.006 55.8478 261.768V289.632M55.8478 289.632C47.1412 289.659 38.7999 293.134 32.6482 299.295C26.4965 305.456 23.0346 313.803 23.021 322.51V365.727H29.3794M55.8478 289.632C64.5592 289.659 72.9064 293.132 79.0663 299.292C85.2262 305.452 88.6978 313.798 88.725 322.51V365.727H80.9708M111.834 213.33C124.944 223.412 141.019 228.878 157.558 228.878C174.096 228.878 190.171 223.412 203.282 213.33M108.887 207.23C112.194 204.636 114.792 201.246 116.437 197.377C118.082 193.509 118.721 189.287 118.296 185.105M206.331 207.851C202.734 205.328 199.879 201.887 198.061 197.887C196.243 193.887 195.528 189.474 195.992 185.105M180.019 368.001L207.624 204.284L222.874 209.143L222.771 247.294L213.465 251.74L227.01 279.551L180.019 368.001ZM135.354 368.001L107.749 204.284L92.4994 209.143L92.6028 247.294L101.908 251.74L88.3638 279.551L135.354 368.001ZM285.632 341.585C285.632 352.377 276.883 361.126 266.091 361.126C255.299 361.126 246.55 352.377 246.55 341.585C246.55 330.793 255.299 322.045 266.091 322.045C276.883 322.045 285.632 330.793 285.632 341.585Z" stroke="white" stroke-width="10" stroke-linecap="round" stroke-linejoin="round"/>
</svg>
