<svg width="315" height="377" viewBox="0 0 315 377" fill="none" xmlns="http://www.w3.org/2000/svg">
    <path d="M132.764 216.538C134.663 213.993 134.138 210.39 131.592 208.492C129.046 206.593 125.443 207.118 123.545 209.664L132.764 216.538ZM92.5014 251.295C90.603 253.841 91.1279 257.443 93.6737 259.342C96.2194 261.24 99.8221 260.715 101.72 258.17L92.5014 251.295ZM67.9029 224.28C65.4129 222.309 61.7966 222.73 59.8257 225.22C57.8548 227.71 58.2757 231.327 60.7657 233.298L67.9029 224.28ZM128.821 287.165C131.311 289.135 134.927 288.715 136.898 286.225C138.869 283.735 138.448 280.118 135.958 278.147L128.821 287.165ZM54.2741 360.201L58.8836 363.638L54.2741 360.201ZM11.7395 326.534L7.12996 323.097L11.7395 326.534ZM16.668 365.279L13.0994 369.788L16.668 365.279ZM280.72 186.703C245.263 234.253 179.23 243.121 133.165 206.659L126.028 215.676C177.243 256.215 250.659 246.253 289.939 193.577L280.72 186.703ZM133.165 206.659C86.9949 170.115 78.2632 101.808 113.796 54.1569L104.577 47.2824C65.3724 99.8576 74.9163 175.221 126.028 215.676L133.165 206.659ZM113.796 54.1569C149.253 6.6066 215.286 -2.26121 261.351 34.2006L268.488 25.1834C217.273 -15.3546 143.857 -5.39363 104.577 47.2824L113.796 54.1569ZM261.351 34.2006C307.521 70.7449 316.253 139.052 280.72 186.703L289.939 193.577C329.144 141.002 319.6 65.6389 268.488 25.1834L261.351 34.2006ZM123.545 209.664L92.5014 251.295L101.72 258.17L132.764 216.538L123.545 209.664ZM60.7657 233.298L128.821 287.165L135.958 278.147L67.9029 224.28L60.7657 233.298ZM115.02 269.119L49.6646 356.764L58.8836 363.638L124.239 275.994L115.02 269.119ZM16.349 329.972L81.7042 242.327L72.4851 235.452L7.12996 323.097L16.349 329.972ZM20.2366 360.77C10.9617 353.429 9.16124 339.611 16.349 329.972L7.12996 323.097C-3.72959 337.66 -1.11692 358.535 13.0994 369.788L20.2366 360.77ZM49.6646 356.764C42.552 366.302 29.4073 368.029 20.2366 360.77L13.0994 369.788C27.4199 381.122 47.9489 378.303 58.8836 363.638L49.6646 356.764Z" fill="white"/>
</svg>
