<svg width="395" height="385" viewBox="0 0 395 385" fill="none" xmlns="http://www.w3.org/2000/svg">
    <path d="M359.635 94.5649C340.941 103.619 295.539 128.893 274.956 131.954C252.939 135.276 231.573 124.463 209.231 130.391C203.504 131.652 198.157 134.251 193.629 137.976C189.1 141.701 185.518 146.446 183.176 151.821C181.082 157.273 181.074 163.306 183.153 168.763C185.233 174.22 189.254 178.718 194.444 181.394C213.009 189.08 209.557 191.425 207.863 212.009C207.082 221.519 208.839 232.397 216.721 238.064C250.658 261.058 279.579 189.992 294.887 175.075C325.697 145.438 341.722 137.491 389.013 126.873M11.0161 246.923C34.9869 242.168 58.5671 233.896 74.7214 220.868C91.9178 206.733 98.2351 183.674 117.581 171.102C122.348 167.715 127.851 165.507 133.637 164.658C139.423 163.808 145.328 164.343 150.867 166.217C156.307 168.317 160.781 172.347 163.437 177.538C166.093 182.729 166.743 188.717 165.263 194.357C158.749 213.312 162.591 212.335 179.006 224.841C186.562 230.639 193.467 239.237 192.034 248.682C188.125 276.496 151.258 268.223 132.628 264.38C113.46 259.471 93.4486 258.826 74.0041 262.491C53.7462 267.311 34.9219 279.818 17.5951 290.566M341.982 82.8401C339.181 67.4024 336.577 58.0877 336.577 58.0877C336.577 58.0877 220.045 87.7254 177.119 5C134.193 87.7254 17.726 58.0877 17.726 58.0877C17.726 58.0877 -4.55222 136.253 11.8626 216.764M46.4509 299.489C72.5061 335.836 113.218 365.93 177.118 380C315.276 349.515 346.477 244.448 348.301 162.569M214.181 156.316C214.181 156.316 209.557 187.322 207.668 212.009M164.286 197.288C164.286 197.288 160.572 207.58 149.955 240.474" stroke="white" stroke-width="10" stroke-linecap="round" stroke-linejoin="round"/>
</svg>
